<?xml version="1.0" encoding="UTF-8" standalone="no"?>
<!-- Created with Inkscape (http://www.inkscape.org/) -->

<svg
   xmlns:dc="http://purl.org/dc/elements/1.1/"
   xmlns:cc="http://creativecommons.org/ns#"
   xmlns:rdf="http://www.w3.org/1999/02/22-rdf-syntax-ns#"
   xmlns:svg="http://www.w3.org/2000/svg"
   xmlns="http://www.w3.org/2000/svg"
   xmlns:sodipodi="http://sodipodi.sourceforge.net/DTD/sodipodi-0.dtd"
   xmlns:inkscape="http://www.inkscape.org/namespaces/inkscape"
   width="1000"
   height="1000"
   id="svg2"
   version="1.1"
   inkscape:version="0.47 r22583"
   sodipodi:docname="graphics.svg">
  <defs
     id="defs4">
    <inkscape:perspective
       sodipodi:type="inkscape:persp3d"
       inkscape:vp_x="0 : 526.18109 : 1"
       inkscape:vp_y="0 : 1000 : 0"
       inkscape:vp_z="744.09448 : 526.18109 : 1"
       inkscape:persp3d-origin="372.04724 : 350.78739 : 1"
       id="perspective10" />
  </defs>
  <sodipodi:namedview
     id="base"
     pagecolor="#4c4c4c"
     bordercolor="#666666"
     borderopacity="1.0"
     inkscape:pageopacity="1"
     inkscape:pageshadow="2"
     inkscape:zoom="8"
     inkscape:cx="45.753621"
     inkscape:cy="963.23847"
     inkscape:document-units="px"
     inkscape:current-layer="layer1"
     showgrid="false"
     inkscape:window-width="1007"
     inkscape:window-height="807"
     inkscape:window-x="571"
     inkscape:window-y="330"
     inkscape:window-maximized="0"
     inkscape:snap-global="true">
    <inkscape:grid
       type="xygrid"
       id="grid3598"
       empspacing="5"
       visible="true"
       enabled="true"
       snapvisiblegridlinesonly="true" />
  </sodipodi:namedview>
  <metadata
     id="metadata7">
    <rdf:RDF>
      <cc:Work
         rdf:about="">
        <dc:format>image/svg+xml</dc:format>
        <dc:type
           rdf:resource="http://purl.org/dc/dcmitype/StillImage" />
        <dc:title />
      </cc:Work>
    </rdf:RDF>
  </metadata>
  <g
     inkscape:label="Layer 1"
     inkscape:groupmode="layer"
     id="layer1"
     transform="translate(0,-52.362183)">
    <path
       sodipodi:type="arc"
       style="opacity:0.98999999;fill:#779cbd;fill-opacity:1;fill-rule:evenodd;stroke:none"
       id="forExport:info"
       sodipodi:cx="174"
       sodipodi:cy="12"
       sodipodi:rx="4"
       sodipodi:ry="4"
       d="m 178,12 c 0,2.209139 -1.79086,4 -4,4 -2.20914,0 -4,-1.790861 -4,-4 0,-2.209139 1.79086,-4 4,-4 2.20914,0 4,1.790861 4,4 z"
       transform="matrix(2.25,0,0,2.25,-212.5,40.362183)"
       inkscape:label="#path2860" />
    <g
       id="forExport:arrowDown10"
       inkscape:label="#downArrow10"
       inkscape:export-xdpi="10"
       inkscape:export-ydpi="10">
      <path
         transform="matrix(0,-0.65333366,0.646633,0,-363.80333,137.22889)"
         d="M 120.71429,584.26237 110,578.07648 l 10.71429,-6.1859 0,12.37179 z"
         inkscape:randomized="0"
         inkscape:rounded="0"
         inkscape:flatsided="true"
         sodipodi:arg2="2.0943952"
         sodipodi:arg1="1.0471976"
         sodipodi:r2="5.7786927"
         sodipodi:r1="7.1428571"
         sodipodi:cy="578.07648"
         sodipodi:cx="117.14286"
         sodipodi:sides="3"
         id="path2818"
         style="fill:#000000;fill-opacity:1;stroke:none"
         sodipodi:type="star" />
      <rect
         y="57.36219"
         x="5.0000029"
         height="10"
         width="10"
         id="rect2820"
         style="fill:none;stroke:none" />
    </g>
    <g
       inkscape:export-ydpi="10"
       inkscape:export-xdpi="10"
       inkscape:label="#downArrow10"
       id="g3604"
       transform="translate(10.000004,0)">
      <rect
         style="fill:none;stroke:none"
         id="rect3608"
         width="10"
         height="10"
         x="5.0000029"
         y="57.36219" />
    </g>
    <g
       inkscape:export-ydpi="10"
       inkscape:export-xdpi="10"
       inkscape:label="#downArrow10"
       id="forExport:arrowUp10"
       transform="matrix(1,0,0,-1,10.000008,124.72438)">
      <path
         sodipodi:type="star"
         style="fill:#000000;fill-opacity:1;stroke:none"
         id="path3612"
         sodipodi:sides="3"
         sodipodi:cx="117.14286"
         sodipodi:cy="578.07648"
         sodipodi:r1="7.1428571"
         sodipodi:r2="5.7786927"
         sodipodi:arg1="1.0471976"
         sodipodi:arg2="2.0943952"
         inkscape:flatsided="true"
         inkscape:rounded="0"
         inkscape:randomized="0"
         d="M 120.71429,584.26237 110,578.07648 l 10.71429,-6.1859 0,12.37179 z"
         transform="matrix(0,-0.65333366,0.646633,0,-363.80333,137.22889)" />
      <rect
         style="fill:none;stroke:none"
         id="rect3614"
         width="10"
         height="10"
         x="5.0000029"
         y="57.36219" />
    </g>
    <g
       inkscape:export-ydpi="10"
       inkscape:export-xdpi="10"
       inkscape:label="#downArrow10"
       id="forExport:arrowLeft10"
       transform="matrix(0,1,-1,0,92.362192,52.362187)">
      <path
         sodipodi:type="star"
         style="fill:#000000;fill-opacity:1;stroke:none"
         id="path3618"
         sodipodi:sides="3"
         sodipodi:cx="117.14286"
         sodipodi:cy="578.07648"
         sodipodi:r1="7.1428571"
         sodipodi:r2="5.7786927"
         sodipodi:arg1="1.0471976"
         sodipodi:arg2="2.0943952"
         inkscape:flatsided="true"
         inkscape:rounded="0"
         inkscape:randomized="0"
         d="M 120.71429,584.26237 110,578.07648 l 10.71429,-6.1859 0,12.37179 z"
         transform="matrix(0,-0.65333366,0.646633,0,-363.80333,137.22889)" />
      <rect
         style="fill:none;stroke:none"
         id="rect3620"
         width="10"
         height="10"
         x="5.0000029"
         y="57.36219" />
    </g>
    <g
       transform="matrix(0,1,1,0,-22.362182,52.362187)"
       id="forExport:arrowRight10"
       inkscape:label="#downArrow10"
       inkscape:export-xdpi="10"
       inkscape:export-ydpi="10">
      <path
         transform="matrix(0,-0.65333366,0.646633,0,-363.80333,137.22889)"
         d="M 120.71429,584.26237 110,578.07648 l 10.71429,-6.1859 0,12.37179 z"
         inkscape:randomized="0"
         inkscape:rounded="0"
         inkscape:flatsided="true"
         sodipodi:arg2="2.0943952"
         sodipodi:arg1="1.0471976"
         sodipodi:r2="5.7786927"
         sodipodi:r1="7.1428571"
         sodipodi:cy="578.07648"
         sodipodi:cx="117.14286"
         sodipodi:sides="3"
         id="path3624"
         style="fill:#000000;fill-opacity:1;stroke:none"
         sodipodi:type="star" />
      <rect
         y="57.36219"
         x="5.0000029"
         height="10"
         width="10"
         id="rect3626"
         style="fill:none;stroke:none" />
    </g>
    <g
       id="forExport:collapsibleArrowRight"
       transform="translate(10,0)"
       inkscape:label="#g2867">
      <path
         sodipodi:type="star"
         style="fill:#000000;fill-opacity:1;stroke:none"
         id="path2835"
         sodipodi:sides="3"
         sodipodi:cx="117.14286"
         sodipodi:cy="578.07648"
         sodipodi:r1="7.1428571"
         sodipodi:r2="5.7786927"
         sodipodi:arg1="1.0471976"
         sodipodi:arg2="2.0943952"
         inkscape:flatsided="true"
         inkscape:rounded="0"
         inkscape:randomized="0"
         d="M 120.71429,584.26237 110,578.07648 l 10.71429,-6.1859 0,12.37179 z"
         transform="matrix(-0.65333366,0,0,0.646633,124.86671,-311.44114)" />
      <rect
         transform="matrix(0,1,1,0,0,0)"
         style="fill:none;stroke:none"
         id="rect2837"
         width="10"
         height="10"
         x="57.36219"
         y="45.000004" />
    </g>
    <g
       inkscape:export-ydpi="10"
       inkscape:export-xdpi="10"
       inkscape:label="#downArrow10"
       id="g2849"
       transform="matrix(0,1,1,0,-22.362182,52.362187)">
      <path
         sodipodi:type="star"
         style="fill:#000000;fill-opacity:1;stroke:none"
         id="path2851"
         sodipodi:sides="3"
         sodipodi:cx="117.14286"
         sodipodi:cy="578.07648"
         sodipodi:r1="7.1428571"
         sodipodi:r2="5.7786927"
         sodipodi:arg1="1.0471976"
         sodipodi:arg2="2.0943952"
         inkscape:flatsided="true"
         inkscape:rounded="0"
         inkscape:randomized="0"
         d="M 120.71429,584.26237 110,578.07648 l 10.71429,-6.1859 0,12.37179 z"
         transform="matrix(0,-0.65333366,0.646633,0,-363.80333,137.22889)" />
      <rect
         style="fill:none;stroke:none"
         id="rect2853"
         width="10"
         height="10"
         x="5.0000029"
         y="57.36219" />
    </g>
    <g
       id="forExport:collapsibleArrowDown"
       inkscape:label="#g2871">
      <path
         transform="matrix(0,-0.65333366,-0.646633,0,423.30333,137.72889)"
         d="M 120.71429,584.26237 110,578.07648 l 10.71429,-6.1859 0,12.37179 z"
         inkscape:randomized="0"
         inkscape:rounded="0"
         inkscape:flatsided="true"
         sodipodi:arg2="2.0943952"
         sodipodi:arg1="1.0471976"
         sodipodi:r2="5.7786927"
         sodipodi:r1="7.1428571"
         sodipodi:cy="578.07648"
         sodipodi:cx="117.14286"
         sodipodi:sides="3"
         id="path2847"
         style="fill:#000000;fill-opacity:1;stroke:none"
         sodipodi:type="star" />
      <rect
         y="45"
         x="57.36219"
         height="10"
         width="10"
         id="rect2865"
         style="fill:none;stroke:none"
         transform="matrix(0,1,1,0,0,0)" />
    </g>
    <path
       id="rect3013"
       style="fill:#000000;fill-opacity:1;fill-rule:evenodd;stroke:none"
       d="m 87,59.362183 16,0 0,16 -16,0 z m 1,1 14,0 0,14 -14,0 z"
       inkscape:connector-curvature="0"
       sodipodi:nodetypes="cccccccccc" />
    <path
       style="fill:#efc618;fill-opacity:1;stroke:none"
       d="m 90.196685,76.454588 c -0.431342,-0.109805 -0.690215,-0.361106 -1.31027,-1.271901 -0.65643,-0.964226 -1.33519,-1.836887 -2.024863,-2.603299 -0.524766,-0.583153 -0.91507,-1.161596 -1.002255,-1.48538 -0.190993,-0.709291 0.398649,-1.562619 1.447306,-2.094536 0.470729,-0.238773 0.54816,-0.258015 1.038337,-0.258015 0.497095,0 0.563657,0.01721 1.082001,0.280052 0.594818,0.301599 1.373418,0.965914 1.822921,1.555347 0.136504,0.178999 0.26603,0.325452 0.287827,0.325452 0.02177,0 0.164208,-0.274705 0.316485,-0.610464 0.336313,-0.741556 1.728594,-3.347638 2.310071,-4.32402 2.156294,-3.620682 4.538839,-6.626438 5.680704,-7.166624 0.427231,-0.202115 1.338621,-0.382904 2.388091,-0.473716 0.73272,-0.06338 0.81795,-0.05907 1.07584,0.05501 0.18422,0.0815 0.31819,0.197574 0.3914,0.339141 0.12782,0.247174 0.13951,0.679936 0.0244,0.901898 -0.0434,0.08357 -0.51977,0.601885 -1.0587,1.151771 -1.47567,1.505676 -2.29807,2.518125 -3.604458,4.437411 -1.743419,2.561359 -3.18888,5.206826 -4.452792,8.149473 -0.96967,2.257583 -0.982354,2.283931 -1.233117,2.561495 -0.125435,0.138843 -0.380198,0.319294 -0.56616,0.401018 -0.299329,0.131547 -0.456439,0.15059 -1.370145,0.16603 -0.567628,0.0097 -1.126805,-0.0066 -1.242616,-0.0362 z"
       id="path3923"
       inkscape:connector-curvature="0" />
    <rect
       y="60.362183"
       x="148"
       height="14"
       width="14"
       id="rect3966"
       style="fill:#779cbd;fill-opacity:1;fill-rule:evenodd;stroke:none" />
    <path
       inkscape:connector-curvature="0"
       id="path3925"
       d="M 10.00302,97.80467 C 9.67541,97.72127 9.47879,97.53041 9.00785,96.83864 8.50927,96.10629 7.99375,95.44349 7.46993,94.861385 7.07136,94.41847 6.77491,93.979131 6.7087,93.733211 6.56363,93.194492 7.01148,92.546373 7.80796,92.142372 8.16548,91.961019 8.2243,91.946405 8.5966,91.946405 c 0.37755,0 0.4281,0.01307 0.82179,0.212704 0.45178,0.22907 1.04314,0.733631 1.38454,1.181315 0.10373,0.135954 0.20206,0.247188 0.21862,0.247188 0.0166,0 0.12472,-0.208644 0.24037,-0.463659 0.25544,-0.563226 1.31289,-2.542595 1.75455,-3.284175 1.63774,-2.749977 3.44733,-5.032904 4.31459,-5.443186 0.3245,-0.15351 1.01672,-0.290822 1.81381,-0.359796 0.55651,-0.04814 0.62125,-0.04487 0.81712,0.04177 0.13992,0.0619 0.24167,0.150061 0.29727,0.257584 0.0971,0.187734 0.10594,0.516424 0.0185,0.685008 -0.0328,0.06347 -0.39478,0.457143 -0.80411,0.874793 -1.1208,1.143589 -1.74543,1.912562 -2.73766,3.370297 -1.32415,1.9454 -2.422,3.954681 -3.38197,6.189678 -0.73648,1.714674 -0.74612,1.734684 -0.93659,1.945504 -0.0953,0.10545 -0.28876,0.24251 -0.42999,0.30458 -0.22736,0.0999 -0.34668,0.11437 -1.04066,0.1261 -0.43112,0.007 -0.85582,-0.005 -0.94379,-0.0275 z"
       style="fill:#efc618;fill-opacity:1;stroke:none" />
    <rect
       style="fill:none;stroke:none"
       id="forExport:checkBoxChecked"
       width="19.97287"
       height="19.972771"
       x="57.389313"
       y="85.027229"
       transform="matrix(0,1,1,0,0,0)"
       inkscape:label="#rect3931" />
    <rect
       style="fill:none;stroke:none"
       id="forExport:menuChecked"
       width="15"
       height="15"
       x="83.362183"
       y="6"
       transform="matrix(0,1,1,0,0,0)"
       inkscape:label="#rect3946" />
    <path
       sodipodi:nodetypes="cccccccccc"
       inkscape:connector-curvature="0"
       d="m 107,59.362183 16,0 0,16 -16,0 z m 1,1 14,0 0,14 -14,0 z"
       style="fill:#000000;fill-opacity:1;fill-rule:evenodd;stroke:none"
       id="path3948" />
    <rect
       inkscape:label="#rect3931"
       transform="matrix(0,1,1,0,0,0)"
       y="105.02723"
       x="57.389313"
       height="19.972771"
       width="19.97287"
       id="forExport:checkBoxUnchecked"
       style="fill:none;stroke:none" />
    <path
       id="path3954"
       style="fill:#000000;fill-opacity:1;fill-rule:evenodd;stroke:none"
       d="m 127,59.362183 16,0 0,16 -16,0 z m 1,1 14,0 0,14 -14,0 z"
       inkscape:connector-curvature="0"
       sodipodi:nodetypes="cccccccccc" />
    <rect
       style="fill:none;stroke:none"
       id="forExport:checkBoxUncheckedHover"
       width="19.97287"
       height="19.972771"
       x="57.389313"
       y="125.02723"
       transform="matrix(0,1,1,0,0,0)"
       inkscape:label="#rect3931" />
    <rect
       style="fill:#779cbd;fill-opacity:1;fill-rule:evenodd;stroke:none"
       id="rect3958"
       width="14"
       height="14"
       x="128"
       y="60.362183" />
    <path
       sodipodi:nodetypes="cccccccccc"
       inkscape:connector-curvature="0"
       d="m 147,59.362183 16,0 0,16 -16,0 z m 1,1 14,0 0,14 -14,0 z"
       style="fill:#000000;fill-opacity:1;fill-rule:evenodd;stroke:none"
       id="path3960" />
    <path
       inkscape:connector-curvature="0"
       id="path3962"
       d="m 150.19669,76.454588 c -0.43135,-0.109805 -0.69022,-0.361106 -1.31027,-1.271901 -0.65643,-0.964226 -1.33519,-1.836887 -2.02487,-2.603299 -0.52476,-0.583153 -0.91507,-1.161596 -1.00225,-1.48538 -0.191,-0.709291 0.39865,-1.562619 1.4473,-2.094536 0.47073,-0.238773 0.54816,-0.258015 1.03834,-0.258015 0.49709,0 0.56366,0.01721 1.082,0.280052 0.59482,0.301599 1.37342,0.965914 1.82292,1.555347 0.13651,0.178999 0.26603,0.325452 0.28783,0.325452 0.0218,0 0.16421,-0.274705 0.31648,-0.610464 0.33632,-0.741556 1.7286,-3.347638 2.31007,-4.32402 2.1563,-3.620682 4.53884,-6.626438 5.68071,-7.166624 0.42723,-0.202115 1.33862,-0.382904 2.38809,-0.473716 0.73272,-0.06338 0.81795,-0.05907 1.07584,0.05501 0.18422,0.0815 0.31819,0.197574 0.3914,0.339141 0.12782,0.247174 0.13951,0.679936 0.0244,0.901898 -0.0434,0.08357 -0.51977,0.601885 -1.0587,1.151771 -1.47567,1.505676 -2.29807,2.518125 -3.60446,4.437411 -1.74342,2.561359 -3.18888,5.206826 -4.45279,8.149473 -0.96967,2.257583 -0.98235,2.283931 -1.23312,2.561495 -0.12543,0.138843 -0.3802,0.319294 -0.56616,0.401018 -0.29933,0.131547 -0.45644,0.15059 -1.37014,0.16603 -0.56763,0.0097 -1.12681,-0.0066 -1.24262,-0.0362 z"
       style="fill:#efc618;fill-opacity:1;stroke:none" />
    <rect
       inkscape:label="#rect3931"
       transform="matrix(0,1,1,0,0,0)"
       y="145.02722"
       x="57.389313"
       height="19.972771"
       width="19.97287"
       id="forExport:checkBoxCheckedHover"
       style="fill:none;stroke:none" />
    <path
       style="fill:#000000;fill-opacity:1;stroke:none"
       d="m 23,84.362183 0,3 3.625,3 -3.625,3 0,2.999997 7,-5.999997 z"
       id="path3970"
       inkscape:connector-curvature="0"
       sodipodi:nodetypes="ccccccc" />
    <rect
       inkscape:label="#rect3946"
       transform="matrix(0,1,1,0,0,0)"
       y="22"
       x="83.362183"
       height="9"
       width="14"
       id="forExport:subMenuArrow"
       style="fill:none;stroke:none"
       ry="0" />
    <path
       sodipodi:type="star"
       style="fill:#779cbd;fill-opacity:1;stroke:none"
       id="fds"
       sodipodi:sides="3"
       sodipodi:cx="117.14286"
       sodipodi:cy="578.07648"
       sodipodi:r1="7.1428571"
       sodipodi:r2="5.7786927"
       sodipodi:arg1="1.0471976"
       sodipodi:arg2="2.0943952"
       inkscape:flatsided="true"
       inkscape:rounded="0"
       inkscape:randomized="0"
       d="M 120.71429,584.26237 110,578.07648 l 10.71429,-6.1859 0,12.37179 z"
       transform="matrix(-0.65333366,0,0,0.646633,154.86671,-311.44114)"
       inkscape:label="#forExport:collapsibleArrowRightHover" />
    <rect
       transform="matrix(0,1,1,0,0,0)"
       style="fill:none;stroke:none"
       id="forExport:collapsibleArrowRightHover"
       width="10"
       height="10"
       x="57.36219"
       y="75"
       inkscape:label="#rect2914" />
    <path
       transform="matrix(0,-0.65333366,-0.646633,0,443.30333,137.72889)"
       d="M 120.71429,584.26237 110,578.07648 l 10.71429,-6.1859 0,12.37179 z"
       inkscape:randomized="0"
       inkscape:rounded="0"
       inkscape:flatsided="true"
       sodipodi:arg2="2.0943952"
       sodipodi:arg1="1.0471976"
       sodipodi:r2="5.7786927"
       sodipodi:r1="7.1428571"
       sodipodi:cy="578.07648"
       sodipodi:cx="117.14286"
       sodipodi:sides="3"
       id="path2918"
       style="fill:#779cbd;fill-opacity:1;stroke:none"
       sodipodi:type="star" />
    <rect
       y="65"
       x="57.36219"
       height="10"
       width="10"
       id="forExport:collapsibleArrowDownHover"
       style="fill:none;stroke:none"
       transform="matrix(0,1,1,0,0,0)"
       inkscape:label="#rect2920" />
    <g
       style="font-size:18.49083519px;font-style:normal;font-variant:normal;font-weight:bold;font-stretch:normal;text-align:start;line-height:125%;writing-mode:lr-tb;text-anchor:start;fill:#ffffff;fill-opacity:1;stroke:#ffffff;stroke-width:0;stroke-linejoin:bevel;stroke-miterlimit:4;stroke-opacity:1;stroke-dasharray:none;font-family:URW Palladio L;-inkscape-font-specification:URW Palladio L Bold"
       id="text2856"
       transform="translate(-0.06948,1)">
      <path
         d="m 180.01251,63.652999 -1.29436,0.406799 c -0.5917,0.184908 -1.03548,0.258871 -1.8121,0.351325 -0.0555,0 -0.14793,0.01849 -0.27736,0.03698 l 0,0.66567 0.83209,0.05547 c 0.42528,0.03698 0.48076,0.2034 0.48076,1.294358 l 0,4.049493 c 0,0.998504 -0.0925,1.146432 -0.66567,1.183414 l -0.64718,0.03698 0,0.684161 c 0,0 2.38532,-0.05547 2.38532,-0.05547 0.36981,0 1.25737,0.01849 2.49626,0.05547 l 0,-0.684161 -0.64718,-0.03698 c -0.57322,-0.03698 -0.66567,-0.18491 -0.66567,-1.183414 l 0,-6.749155 -0.18491,-0.110945 m -0.9985,-4.345346 c -0.79511,0 -1.40531,0.591707 -1.40531,1.368322 0,0.776614 0.6102,1.405303 1.38682,1.405303 0.75812,0 1.38681,-0.628689 1.38681,-1.386812 0,-0.758124 -0.6102,-1.386813 -1.36832,-1.386813"
         id="path3635"
         style="stroke:#ffffff;stroke-width:0;stroke-linejoin:bevel;stroke-miterlimit:4;stroke-opacity:1;stroke-dasharray:none" />
    </g>
    <path
       style="fill:#779cbd;fill-opacity:1;fill-rule:evenodd;stroke:none"
       d="m 194,63.362183 4,0 c 1,0 1,2 1,2 l 6,0 0,9 -12,0 0,-9 c 0,0 -0.1875,-2.125 1,-2 z"
       id="forExport:pathChooser"
       sodipodi:nodetypes="cccccccc"
       inkscape:label="#rect2859" />
    <path
       sodipodi:nodetypes="ccccccc"
       inkscape:connector-curvature="0"
       id="forExport:headerSortDown"
       d="m 43.999997,87.362183 -3,0 -3,3.625 -3,-3.625 -2.999997,0 5.999997,7 z"
       style="fill:#000000;fill-opacity:1;stroke:none"
       inkscape:label="#path2860" />
    <path
       inkscape:label="#path2860"
       style="fill:#000000;fill-opacity:1;stroke:none"
       d="m 56.999997,94.362183 -3,0 -3,-3.625 -3,3.625 -2.999997,0 5.999997,-7 z"
       id="forExport:headerSortUp"
       inkscape:connector-curvature="0"
       sodipodi:nodetypes="ccccccc" />
  </g>
</svg>
