<?xml version="1.0" encoding="UTF-8" standalone="no"?>
<!-- Generator: Adobe Illustrator 14.0.0, SVG Export Plug-In . SVG Version: 6.00 Build 43363)  -->

<svg
   xmlns:dc="http://purl.org/dc/elements/1.1/"
   xmlns:cc="http://creativecommons.org/ns#"
   xmlns:rdf="http://www.w3.org/1999/02/22-rdf-syntax-ns#"
   xmlns:svg="http://www.w3.org/2000/svg"
   xmlns="http://www.w3.org/2000/svg"
   xmlns:sodipodi="http://sodipodi.sourceforge.net/DTD/sodipodi-0.dtd"
   xmlns:inkscape="http://www.inkscape.org/namespaces/inkscape"
   version="1.1"
   id="Layer_1"
   x="0px"
   y="0px"
   width="96px"
   height="96px"
   viewBox="0 0 96 96"
   enable-background="new 0 0 96 96"
   xml:space="preserve"
   inkscape:version="0.47 r22583"
   sodipodi:docname="GafferLogoMini.svg"><metadata
   id="metadata17"><rdf:RDF><cc:Work
       rdf:about=""><dc:format>image/svg+xml</dc:format><dc:type
         rdf:resource="http://purl.org/dc/dcmitype/StillImage" /></cc:Work></rdf:RDF></metadata><defs
   id="defs15"><inkscape:perspective
     sodipodi:type="inkscape:persp3d"
     inkscape:vp_x="0 : 48 : 1"
     inkscape:vp_y="0 : 1000 : 0"
     inkscape:vp_z="96 : 48 : 1"
     inkscape:persp3d-origin="48 : 32 : 1"
     id="perspective19" /></defs><sodipodi:namedview
   pagecolor="#ffffff"
   bordercolor="#666666"
   borderopacity="1"
   objecttolerance="10"
   gridtolerance="10"
   guidetolerance="10"
   inkscape:pageopacity="0"
   inkscape:pageshadow="2"
   inkscape:window-width="640"
   inkscape:window-height="493"
   id="namedview13"
   showgrid="false"
   inkscape:zoom="2.4583333"
   inkscape:cx="48"
   inkscape:cy="47.186441"
   inkscape:window-x="0"
   inkscape:window-y="25"
   inkscape:window-maximized="0"
   inkscape:current-layer="Layer_1" />
<g
   id="forExport:GafferLogoMini"
   inkscape:label="#g3">
	<polygon
   fill="#FFFFFF"
   points="75.772,95.666 0.334,75.692 20.312,0.252 95.751,20.226  "
   id="polygon5" />
	<g
   id="g7">
		<rect
   x="30.05"
   y="32.863"
   fill="#B92227"
   width="31.495"
   height="31.497"
   id="rect9" />
		<path
   fill="#B92227"
   d="M20.312,0.252L0.334,75.692L43.75,87.188v-5.453h17.795V74.8H30.05c-1.436,0-2.792-0.265-4.062-0.791    c-1.271-0.527-2.375-1.248-3.316-2.169c-0.939-0.917-1.684-1.985-2.236-3.21c-0.553-1.222-0.829-2.559-0.829-4.006V32.928    c0-3.114,0.953-5.643,2.859-7.591c1.906-1.947,4.433-2.919,7.584-2.919h41.94v59.247c0,6.707-3.227,10.169-9.605,10.459    l13.388,3.542l19.979-75.44L20.312,0.252z"
   id="path11" />
	</g>
</g>
</svg>