<?xml version="1.0" encoding="UTF-8" standalone="no"?>
<!-- Generator: Adobe Illustrator 14.0.0, SVG Export Plug-In . SVG Version: 6.00 Build 43363)  -->

<svg
   xmlns:dc="http://purl.org/dc/elements/1.1/"
   xmlns:cc="http://creativecommons.org/ns#"
   xmlns:rdf="http://www.w3.org/1999/02/22-rdf-syntax-ns#"
   xmlns:svg="http://www.w3.org/2000/svg"
   xmlns="http://www.w3.org/2000/svg"
   xmlns:sodipodi="http://sodipodi.sourceforge.net/DTD/sodipodi-0.dtd"
   xmlns:inkscape="http://www.inkscape.org/namespaces/inkscape"
   version="1.1"
   id="Layer_1"
   x="0px"
   y="0px"
   width="300"
   height="200"
   viewBox="0 0 300 200"
   enable-background="new 0 0 160 80"
   xml:space="preserve"
   inkscape:version="0.48.1 r9760"
   sodipodi:docname="GafferLogo.svg"><metadata
   id="metadata2864"><rdf:RDF><cc:Work
       rdf:about=""><dc:format>image/svg+xml</dc:format><dc:type
         rdf:resource="http://purl.org/dc/dcmitype/StillImage" /></cc:Work></rdf:RDF></metadata><defs
   id="defs2862"><inkscape:perspective
     sodipodi:type="inkscape:persp3d"
     inkscape:vp_x="0 : 40 : 1"
     inkscape:vp_y="0 : 1000 : 0"
     inkscape:vp_z="160 : 40 : 1"
     inkscape:persp3d-origin="80 : 26.666667 : 1"
     id="perspective2866" /></defs><sodipodi:namedview
   pagecolor="#ffffff"
   bordercolor="#666666"
   borderopacity="1"
   objecttolerance="10"
   gridtolerance="10"
   guidetolerance="10"
   inkscape:pageopacity="0"
   inkscape:pageshadow="2"
   inkscape:window-width="1078"
   inkscape:window-height="849"
   id="namedview2860"
   showgrid="false"
   inkscape:zoom="2"
   inkscape:cx="96.27119"
   inkscape:cy="158.7843"
   inkscape:window-x="87"
   inkscape:window-y="0"
   inkscape:window-maximized="0"
   inkscape:current-layer="Layer_1"
   inkscape:object-nodes="true" />













<g
   id="GafferLogo"
   inkscape:label="#g3033"><rect
     id="rect2826"
     height="39.766716"
     width="39.763008"
     transform="matrix(0.84254372,0.53862796,-0.53862796,0.84254372,0,0)"
     y="2.5073528"
     x="135.65637"
     style="fill:#858585;fill-opacity:1" /><rect
     id="rect2828"
     height="39.607006"
     width="39.605156"
     transform="matrix(0.26309202,0.96477074,-0.96477074,0.26309202,0,0)"
     y="-52.134483"
     x="81.427399"
     style="fill:#b1b1b1;fill-opacity:1" /><rect
     id="rect2830"
     height="21.331533"
     width="21.331533"
     transform="matrix(0.78083955,0.62473162,-0.62473162,0.78083955,0,0)"
     y="38.596733"
     x="50.616306"
     style="fill:#656565;fill-opacity:1" /><rect
     id="rect2832"
     height="21.334379"
     width="21.332527"
     transform="matrix(0.42900174,0.90330366,-0.90330366,0.42900174,0,0)"
     y="-113.6455"
     x="150.94014"
     style="fill:#a1a1a1;fill-opacity:1" /><rect
     id="rect2834"
     height="13.13263"
     width="13.134482"
     transform="matrix(-0.00829971,0.99996556,-0.99996556,-0.00829971,0,0)"
     y="-191.42117"
     x="106.54742"
     style="fill:#777777;fill-opacity:1" /><rect
     id="rect2836"
     height="21.335299"
     width="21.333445"
     transform="matrix(0.65147462,0.75867043,-0.75867043,0.65147462,0,0)"
     y="-94.814049"
     x="83.626045"
     style="fill:#989898;fill-opacity:1" /><rect
     id="rect2838"
     height="13.134026"
     width="13.134026"
     transform="matrix(0.28810009,0.9576003,-0.9576003,0.28810009,0,0)"
     y="-81.271362"
     x="161.80212"
     style="fill:#5d5d5d;fill-opacity:1" /><path
     id="path2850"
     d="m 158.12365,62.551548 h -21.32706 c -0.7667,0 -1.476,-0.133341 -2.12789,-0.401873 -0.65373,-0.270385 -1.21302,-0.638923 -1.67971,-1.109318 -0.4704,-0.46484 -0.83894,-1.025981 -1.10932,-1.679719 -0.27039,-0.653739 -0.40373,-1.361183 -0.40373,-2.127891 v -5.365099 c 0,-1.561194 0.49632,-2.83904 1.49082,-3.831685 0.99265,-0.992645 2.27049,-1.488968 3.82983,-1.488968 H 152.803 V 41.183748 H 136.30212 V 35.861243 H 152.803 c 1.57786,0 2.85941,0.501879 3.84465,1.507487 0.98338,1.005609 1.476,2.289011 1.476,3.846501 V 62.551548 z M 152.803,57.234599 V 51.8695 h -16.00641 v 5.365099 H 152.803 z"
     inkscape:connector-curvature="0"
     style="fill:#b92227" /><path
     id="path2852"
     d="m 189.96608,33.264809 h -5.02063 v 8.589345 h 3.70204 v 4.93915 h -3.53352 V 62.5534 h -5.3225 V 46.793304 h -3.58908 v -4.93915 h 3.58908 v -8.333776 c 0,-1.588973 0.49262,-2.879782 1.47045,-3.872428 0.97968,-0.992645 2.26493,-1.490819 3.85205,-1.490819 h 4.85211 v 5.107678 z"
     inkscape:connector-curvature="0"
     style="fill:#b92227" /><path
     id="path2854"
     d="m 218.77131,33.264809 h -5.02063 v 8.589345 h 3.70205 v 4.93915 H 213.9192 V 62.5534 h -5.32065 V 46.793304 h -3.58908 v -4.93915 h 3.58908 v -8.333776 c 0,-1.588973 0.49077,-2.879782 1.46675,-3.872428 0.97968,-0.992645 2.26493,-1.490819 3.8539,-1.490819 h 4.85211 v 5.107678 z"
     inkscape:connector-curvature="0"
     style="fill:#b92227" /><path
     id="path2856"
     d="m 296.631,40.846693 h -12.06545 v 21.704855 h -5.57437 V 49.093427 40.759651 c 0,-1.588973 0.49076,-2.879782 1.46859,-3.872428 0.97968,-0.990793 2.26494,-1.488967 3.85391,-1.488967 h 12.09323 l 0.22409,5.448437 z"
     inkscape:connector-curvature="0"
     style="fill:#b92227" /><path
     id="path2858"
     d="m 262.3977,48.465615 c 0,0.935235 -0.0981,1.816763 -0.29631,2.640881 h -21.58077 c 0.28149,0.850045 0.69263,1.637124 1.23339,2.359385 0.53707,0.724112 1.15562,1.342664 1.8501,1.853802 0.69448,0.511138 1.4686,0.907455 2.3205,1.192656 0.85375,0.281496 1.73157,0.424096 2.63903,0.424096 2.69829,0 4.89655,-1.048204 6.60035,-3.148315 l 4.02058,3.470554 c 0,0 -1.85751,1.922325 -2.97794,2.659401 -1.12228,0.74078 -2.32605,1.314884 -3.61686,1.726017 -1.2908,0.411133 -2.63532,0.6167 -4.02613,0.6167 -1.87233,0 -3.6539,-0.362983 -5.34288,-1.085243 -1.68713,-0.724113 -3.15387,-1.70935 -4.40394,-2.957564 -1.25006,-1.248215 -2.24271,-2.711255 -2.97979,-4.385418 -0.74078,-1.676015 -1.10746,-3.463147 -1.10746,-5.363248 0,-1.901952 0.36483,-3.689084 1.10746,-5.365099 0.73708,-1.672311 1.73158,-3.1335 2.97979,-4.383566 1.25007,-1.248214 2.71681,-2.24086 4.40394,-2.98164 1.68898,-0.733372 3.47055,-1.105614 5.34288,-1.105614 1.9001,0 3.68908,0.37039 5.36509,1.105614 1.67417,0.74078 3.1335,1.733426 4.38357,2.98164 1.25007,1.250066 2.24271,2.711255 2.97979,4.383566 0.73522,1.670459 1.10561,3.457591 1.10561,5.361395 z m -5.78734,-2.683475 c -0.2852,-0.850045 -0.69633,-1.629716 -1.23525,-2.340865 -0.53892,-0.709297 -1.16488,-1.327848 -1.87418,-1.85195 -0.70929,-0.525954 -1.49082,-0.927827 -2.34271,-1.21488 -0.85005,-0.281496 -1.71676,-0.424096 -2.59644,-0.424096 -0.90745,0 -1.78528,0.1426 -2.63903,0.424096 -0.85189,0.285201 -1.62601,0.681518 -2.32049,1.192656 -0.69448,0.511139 -1.31303,1.12969 -1.8501,1.853802 -0.54077,0.722261 -0.9519,1.50934 -1.2334,2.359385 h 16.0916 z"
     inkscape:connector-curvature="0"
     style="fill:#b92227" /><path
     sodipodi:nodetypes="cccccccc"
     inkscape:connector-curvature="0"
     id="polygon5"
     d="m 83.915254,24.528568 38.494456,10.192189 -10.19473,38.494968 -6.83103,-1.807374 -3.39098,-3.443516 -6.117946,0.924808 -22.153997,-5.866089 z"
     style="fill:#b92227;fill-opacity:1" /><path
     inkscape:connector-curvature="0"
     d="m 95.875024,68.889643 0,-2.782518 9.080306,0 0,-3.538743 -16.071042,0 c -0.732751,0 -1.424681,-0.135192 -2.072726,-0.403632 -0.648557,-0.268904 -1.211898,-0.636812 -1.692064,-1.106781 -0.479148,-0.467914 -0.859299,-1.012887 -1.14097,-1.637976 -0.282182,-0.623552 -0.423017,-1.305773 -0.423017,-2.044146 l 0,-16.173598 c 0,-1.588992 0.486291,-2.879468 1.45887,-3.873484 0.97258,-0.993497 2.262039,-1.489486 3.869907,-1.489486 l 21.400832,0 0,30.232122 c 0,3.422404 -1.64664,5.188961 -4.90117,5.33695 z m -6.990736,-27.720563 16.071042,0 0,16.072057 -16.071042,0 z"
     style="fill:#ffffff;fill-rule:evenodd;stroke:none"
     id="path11" /></g></svg>