<?xml version="1.0" encoding="UTF-8" standalone="no"?>
<!-- Generator: Adobe Illustrator 14.0.0, SVG Export Plug-In . SVG Version: 6.00 Build 43363)  -->

<svg
   xmlns:dc="http://purl.org/dc/elements/1.1/"
   xmlns:cc="http://creativecommons.org/ns#"
   xmlns:rdf="http://www.w3.org/1999/02/22-rdf-syntax-ns#"
   xmlns:svg="http://www.w3.org/2000/svg"
   xmlns="http://www.w3.org/2000/svg"
   xmlns:sodipodi="http://sodipodi.sourceforge.net/DTD/sodipodi-0.dtd"
   xmlns:inkscape="http://www.inkscape.org/namespaces/inkscape"
   version="1.1"
   id="Layer_1"
   x="0px"
   y="0px"
   width="160px"
   height="80px"
   viewBox="0 0 160 80"
   enable-background="new 0 0 160 80"
   xml:space="preserve"
   inkscape:version="0.47 r22583"
   sodipodi:docname="GafferLogo.svg"><metadata
   id="metadata2864"><rdf:RDF><cc:Work
       rdf:about=""><dc:format>image/svg+xml</dc:format><dc:type
         rdf:resource="http://purl.org/dc/dcmitype/StillImage" /></cc:Work></rdf:RDF></metadata><defs
   id="defs2862"><inkscape:perspective
     sodipodi:type="inkscape:persp3d"
     inkscape:vp_x="0 : 40 : 1"
     inkscape:vp_y="0 : 1000 : 0"
     inkscape:vp_z="160 : 40 : 1"
     inkscape:persp3d-origin="80 : 26.666667 : 1"
     id="perspective2866" /></defs><sodipodi:namedview
   pagecolor="#ffffff"
   bordercolor="#666666"
   borderopacity="1"
   objecttolerance="10"
   gridtolerance="10"
   guidetolerance="10"
   inkscape:pageopacity="0"
   inkscape:pageshadow="2"
   inkscape:window-width="640"
   inkscape:window-height="489"
   id="namedview2860"
   showgrid="false"
   inkscape:zoom="2.95"
   inkscape:cx="80"
   inkscape:cy="40"
   inkscape:window-x="0"
   inkscape:window-y="25"
   inkscape:window-maximized="0"
   inkscape:current-layer="Layer_1" />












<g
   id="forExport:GafferLogo"
   inkscape:label="#g3116"><rect
     id="rect2826"
     height="21.474"
     width="21.472"
     fill="#8A8A8A"
     transform="matrix(0.8425 0.5386 -0.5386 0.8425 39.6356 -25.6615)"
     y="44.224"
     x="52.973" /><rect
     id="rect2828"
     height="21.386"
     width="21.385"
     fill="#C0C0C0"
     transform="matrix(0.2631 0.9648 -0.9648 0.2631 68.6072 5.5276)"
     y="36.983"
     x="19.992" /><rect
     id="rect2830"
     height="11.519"
     width="11.519"
     fill="#444444"
     transform="matrix(0.7808 0.6247 -0.6247 0.7808 27.5022 3.5588)"
     y="35.219"
     x="2.919" /><rect
     id="rect2832"
     height="11.52"
     width="11.519"
     fill="#AEADAD"
     transform="matrix(0.429 0.9033 -0.9033 0.429 98.9785 -47.5824)"
     y="48.744"
     x="81.369" /><rect
     id="rect2834"
     height="7.091"
     width="7.092"
     fill="#7B7A7A"
     transform="matrix(-0.0083 1 -1 -0.0083 161.021 -36.8221)"
     y="57.891"
     x="95.224" /><rect
     id="rect2836"
     height="11.52"
     width="11.519"
     fill="#818282"
     transform="matrix(0.6515 0.7587 -0.7587 0.6515 29.8765 -47.9239)"
     y="2.797"
     x="61.341" /><rect
     id="rect2838"
     height="7.092"
     width="7.092"
     fill="#444444"
     transform="matrix(0.2881 0.9576 -0.9576 0.2881 117.5519 -8.1802)"
     y="71.424"
     x="60.732" /><g
     id="g2840">
	
		<rect
   id="rect2842"
   height="21.472"
   width="21.472"
   fill="#FFFFFF"
   transform="matrix(0.9667 0.256 -0.256 0.9667 8.3814 -12.5472)"
   y="15.189"
   x="41.657" />
	<g
   id="g2844">
		<rect
   id="rect2846"
   height="8.666"
   width="8.666"
   fill="#B92227"
   y="21.771"
   x="47.442" />
		<path
   id="path2848"
   d="M44.763,12.798l-5.497,20.757l11.946,3.163v-1.5h4.896v-1.908h-8.666c-0.396,0-0.768-0.072-1.117-0.217    c-0.35-0.145-0.654-0.344-0.914-0.597c-0.258-0.251-0.462-0.545-0.615-0.883c-0.152-0.336-0.228-0.704-0.228-1.102v-8.722    c0-0.856,0.262-1.552,0.787-2.088c0.524-0.536,1.22-0.803,2.086-0.803h11.54v16.301c0,1.844-0.887,2.797-2.641,2.877l3.681,0.975    l5.497-20.756L44.763,12.798z"
   fill="#B92227" />
	</g>
</g><path
     id="path2850"
     d="M84.841,33.309H73.325c-0.414,0-0.797-0.072-1.149-0.217c-0.353-0.146-0.655-0.345-0.907-0.599  c-0.254-0.251-0.453-0.554-0.599-0.907c-0.146-0.353-0.218-0.735-0.218-1.149v-2.897c0-0.843,0.268-1.533,0.805-2.069  c0.536-0.536,1.226-0.804,2.068-0.804h8.643v-2.896h-8.91v-2.874h8.91c0.852,0,1.544,0.271,2.076,0.814  c0.531,0.543,0.797,1.236,0.797,2.077V33.309z M81.968,30.438v-2.897h-8.643v2.897H81.968z"
     fill="#B92227" /><path
     id="path2852"
     d="M102.035,17.495h-2.711v4.638h1.999v2.667h-1.908v8.51h-2.874v-8.51h-1.938v-2.667h1.938v-4.5  c0-0.858,0.266-1.555,0.794-2.091c0.529-0.536,1.223-0.805,2.08-0.805h2.62V17.495z"
     fill="#B92227" /><path
     id="path2854"
     d="M117.589,17.495h-2.711v4.638h1.999v2.667h-1.908v8.51h-2.873v-8.51h-1.938v-2.667h1.938v-4.5  c0-0.858,0.265-1.555,0.792-2.091c0.529-0.536,1.223-0.805,2.081-0.805h2.62V17.495z"
     fill="#B92227" /><path
     id="path2856"
     d="M159.631,21.589h-6.515v11.72h-3.01v-7.267v-4.5c0-0.858,0.265-1.555,0.793-2.091  c0.529-0.535,1.223-0.804,2.081-0.804h6.53L159.631,21.589z"
     fill="#B92227" /><path
     id="path2858"
     d="M141.146,25.703c0,0.505-0.053,0.981-0.16,1.426h-11.653c0.152,0.459,0.374,0.884,0.666,1.274  c0.29,0.391,0.624,0.725,0.999,1.001s0.793,0.49,1.253,0.644c0.461,0.152,0.935,0.229,1.425,0.229c1.457,0,2.644-0.566,3.564-1.7  l2.171,1.874c0,0-1.003,1.038-1.608,1.436c-0.606,0.4-1.256,0.71-1.953,0.932c-0.697,0.222-1.423,0.333-2.174,0.333  c-1.011,0-1.973-0.196-2.885-0.586c-0.911-0.391-1.703-0.923-2.378-1.597s-1.211-1.464-1.609-2.368  c-0.4-0.905-0.598-1.87-0.598-2.896c0-1.027,0.197-1.992,0.598-2.897c0.398-0.903,0.935-1.692,1.609-2.367  c0.675-0.674,1.467-1.21,2.378-1.61c0.912-0.396,1.874-0.597,2.885-0.597c1.026,0,1.992,0.2,2.897,0.597  c0.904,0.4,1.692,0.936,2.367,1.61c0.675,0.675,1.211,1.464,1.609,2.367C140.946,23.71,141.146,24.675,141.146,25.703z   M138.021,24.254c-0.154-0.459-0.376-0.88-0.667-1.264c-0.291-0.383-0.629-0.717-1.012-1c-0.383-0.284-0.805-0.501-1.265-0.656  c-0.459-0.152-0.927-0.229-1.402-0.229c-0.49,0-0.964,0.077-1.425,0.229c-0.46,0.154-0.878,0.368-1.253,0.644  s-0.709,0.61-0.999,1.001c-0.292,0.39-0.514,0.815-0.666,1.274H138.021z"
     fill="#B92227" /></g>
</svg>