<?xml version="1.0" encoding="UTF-8" standalone="no"?>
<!-- Generator: Adobe Illustrator 14.0.0, SVG Export Plug-In . SVG Version: 6.00 Build 43363)  -->

<svg
   xmlns:dc="http://purl.org/dc/elements/1.1/"
   xmlns:cc="http://creativecommons.org/ns#"
   xmlns:rdf="http://www.w3.org/1999/02/22-rdf-syntax-ns#"
   xmlns:svg="http://www.w3.org/2000/svg"
   xmlns="http://www.w3.org/2000/svg"
   xmlns:sodipodi="http://sodipodi.sourceforge.net/DTD/sodipodi-0.dtd"
   xmlns:inkscape="http://www.inkscape.org/namespaces/inkscape"
   version="1.1"
   id="Layer_1"
   x="0px"
   y="0px"
   width="96px"
   height="96px"
   viewBox="0 0 96 96"
   enable-background="new 0 0 96 96"
   xml:space="preserve"
   inkscape:version="0.48.1 r9760"
   sodipodi:docname="GafferLogoMini.svg"><metadata
   id="metadata17"><rdf:RDF><cc:Work
       rdf:about=""><dc:format>image/svg+xml</dc:format><dc:type
         rdf:resource="http://purl.org/dc/dcmitype/StillImage" /></cc:Work></rdf:RDF></metadata><defs
   id="defs15"><inkscape:perspective
   sodipodi:type="inkscape:persp3d"
   inkscape:vp_x="0 : 48 : 1"
   inkscape:vp_y="0 : 1000 : 0"
   inkscape:vp_z="96 : 48 : 1"
   inkscape:persp3d-origin="48 : 32 : 1"
   id="perspective19" />
	
	

		
		
	</defs><sodipodi:namedview
   pagecolor="#ffffff"
   bordercolor="#666666"
   borderopacity="1"
   objecttolerance="10"
   gridtolerance="10"
   guidetolerance="10"
   inkscape:pageopacity="0"
   inkscape:pageshadow="2"
   inkscape:window-width="1230"
   inkscape:window-height="789"
   id="namedview13"
   showgrid="false"
   inkscape:zoom="4"
   inkscape:cx="111.44804"
   inkscape:cy="50.118115"
   inkscape:window-x="599"
   inkscape:window-y="8"
   inkscape:window-maximized="0"
   inkscape:current-layer="Layer_1"
   inkscape:object-nodes="true" />
<g
   id="GafferLogoMini"
   inkscape:label="#g3049"><path
     sodipodi:nodetypes="cccccccc"
     inkscape:connector-curvature="0"
     id="polygon5"
     d="M 20.312,0.252 95.751,20.226 75.772,95.666 62.385,92.124 55.739564,85.37563 43.75,87.188 0.334,75.692 z"
     style="fill:#b92227;fill-opacity:1" /><path
     inkscape:connector-curvature="0"
     d="m 43.75,87.188 0,-5.453 17.795,0 0,-6.935 -31.495,0 c -1.436,0 -2.792,-0.265 -4.062,-0.791 -1.271,-0.527 -2.375,-1.248 -3.316,-2.169 -0.939,-0.917 -1.684,-1.985 -2.236,-3.21 -0.553,-1.222 -0.829,-2.559 -0.829,-4.006 l 0,-31.696 c 0,-3.114 0.953,-5.643 2.859,-7.591 1.906,-1.947 4.433,-2.919 7.584,-2.919 l 41.94,0 0,59.247 c 0,6.707 -3.227,10.169 -9.605,10.459 z m -13.700001,-54.325001 31.495001,0 0,31.497 -31.495001,0 z"
     style="fill:#ffffff;fill-rule:evenodd;stroke:none"
     id="path11" /></g>
</svg>